<svg width="256" height="107" viewBox="0 0 256 107" fill="none" xmlns="http://www.w3.org/2000/svg"><path d="M246.404 3.034c-4.229 0-6.735 3.133-6.735 6.548 0 3.414 2.277 6.547 6.735 6.547 4.459 0 6.738-3.105 6.738-6.547 0-3.396-2.508-6.548-6.738-6.548Zm-221.94.935L2.858 58.95h12.23l4.228-10.691h19.178l4.229 10.691h12.22L33.292 3.97h-8.829Zm198.746 0v14.61a21.372 21.372 0 0 0-5.739-.804c-7.443 0-11.478 3.742-13.244 5.529-3.622 3.994-5.639 9.324-5.623 14.863-.062 13.217 6.754 18.455 10.145 20.102a14.802 14.802 0 0 0 7.301 1.532c2.837-.207 5.54-1.356 7.726-3.282l.345 2.44h10.595V3.97H223.21Zm-41.704 13.8c-1.904-.004-3.624.3-4.842.746a14.777 14.777 0 0 0-5.634 3.508l-.468-3.294h-10.595V58.95h11.601V31.207a18.273 18.273 0 0 1 3.143-2.348 6.767 6.767 0 0 1 3.265-.942 6.738 6.738 0 0 1 3.304.774c2.031 1.207 2.968 4.04 2.968 7.483v22.815h11.6V35.332c.009-8.662-3.001-12.516-4.794-14.18-2.698-2.509-6.376-3.374-9.548-3.382Zm-81.693.006c-4.456.156-8.787 1.595-12.529 4.164-2.569-2.806-8.873-5.37-14.056-3.444a14.85 14.85 0 0 0-5.633 3.508l-.406-3.283H56.532v40.22h11.602V31.095c.912-.91 1.947-1.67 3.072-2.254 1.297-.664 4.503-1.87 6.825.197 1.766 1.6 1.871 5.368 1.871 6.435v23.459H91.38V34.837a29.232 29.232 0 0 0-.38-4.368 21.24 21.24 0 0 1 3.41-1.871c2.649-1.244 5.65-.627 6.639.102 2.128 1.572 2.34 5.136 2.34 6.754v23.46h11.478v-23.89c0-4.397-.583-9.934-4.309-13.507-3.726-3.573-9.536-3.742-10.745-3.742Zm19.353.945v23.786c0 4.462.752 9.355 3.648 12.76 2.896 3.404 7.557 4.779 11.848 4.46a14.235 14.235 0 0 0 5.686-1.673 12.872 12.872 0 0 0 3.416-2.545l.495 3.451h10.595V18.74l.036-.02h-11.602v27.867a19.97 19.97 0 0 1-3.028 2 8.524 8.524 0 0 1-6.489.404c-2.649-1.066-3.011-5.613-3.011-7.53V18.72h-11.594Zm121.473 0v40.23h11.523V18.72h-11.523Zm-211.76 1.964 6.18 17.145H22.7l6.18-17.145Zm189.418 7.258c.181-.006.362-.005.543.002a12.98 12.98 0 0 1 4.415.831l-.045 18.015a6.548 6.548 0 0 1-2.824 2.105c-4.009 1.74-9.13-.215-10.208-7.483a15.091 15.091 0 0 1 .557-7.622 8.76 8.76 0 0 1 2.928-4.163 7.99 7.99 0 0 1 4.634-1.685Zm33.874 41.363H3.309V79.66h248.862V69.305Z" fill="#0C1C49"/><path d="M74.83 89.732c-.425 0-.85.044-1.267.133-1.713.271-3.373 1.356-3.69 3.283a3.895 3.895 0 0 0 .094 1.907c.19.616.529 1.168.983 1.6a9.569 9.569 0 0 0 3.408 1.62c.53.155 1.04.378 1.52.662.232.139.405.366.484.636.08.27.057.562-.06.815-.257.496-.964.618-1.45.618a3.174 3.174 0 0 1-1.765-.441 3.95 3.95 0 0 1-1.12-.979l-2.306 1.887a5.594 5.594 0 0 0 2.03 1.721c2.888 1.515 8.159.655 8.106-3.6a4.014 4.014 0 0 0-.387-1.795 3.771 3.771 0 0 0-1.132-1.395 12.9 12.9 0 0 0-3.532-1.497 3.043 3.043 0 0 1-1.43-.824.966.966 0 0 1-.136-.756.96.96 0 0 1 .16-.355.898.898 0 0 1 .285-.253 2.438 2.438 0 0 1 1.687-.17 2.94 2.94 0 0 1 1.545.935c.14.158.27.327.388.506l2.305-1.87a5.136 5.136 0 0 0-.69-.861 6.16 6.16 0 0 0-4.03-1.527Zm-2.864 9.854.06-.05-.087.019.027.031Zm14.094-9.854c-.425 0-.849.044-1.266.133-1.712.271-3.372 1.356-3.69 3.283a3.895 3.895 0 0 0 .094 1.907c.189.615.528 1.168.982 1.6a9.569 9.569 0 0 0 3.41 1.62 6.651 6.651 0 0 1 1.517.662c.232.139.406.366.485.636.079.27.057.562-.06.815-.257.505-.964.618-1.45.618a3.165 3.165 0 0 1-1.765-.441 3.942 3.942 0 0 1-1.125-.984l-2.3 1.883a5.604 5.604 0 0 0 2.031 1.721c2.888 1.515 8.158.655 8.105-3.6a4.015 4.015 0 0 0-.386-1.795 3.774 3.774 0 0 0-1.133-1.396 12.88 12.88 0 0 0-3.532-1.496 3.035 3.035 0 0 1-1.43-.824.966.966 0 0 1-.137-.757c.03-.13.085-.25.161-.356a.897.897 0 0 1 .285-.253 2.428 2.428 0 0 1 1.687-.168 2.931 2.931 0 0 1 1.545.935c.142.158.271.327.388.506l2.304-1.87c-.2-.31-.43-.595-.688-.852a6.159 6.159 0 0 0-4.032-1.527Zm-2.868 9.849.066-.053-.088.027.022.026Zm98.247-9.794c-.238.009-.474.03-.706.06a5.252 5.252 0 0 0-2.518 1.002 5.68 5.68 0 0 0-1.755 2.158 9.424 9.424 0 0 0-.769 4.473 7.782 7.782 0 0 0 1.281 4.143c1.369 1.908 3.382 2.47 5.651 2.32a13.434 13.434 0 0 0 4.149-.824v-6.94h-5.051v2.695l.019.054h1.827v1.984a4.78 4.78 0 0 1-2.401-.095c-.538-.233-2.147-1.075-1.935-4.545a4.267 4.267 0 0 1 1.016-2.806c.359-.37.829-.594 1.329-.631a2.04 2.04 0 0 1 1.399.426c.351.337.631.747.823 1.206l2.869-1.553a6.166 6.166 0 0 0-.752-1.3c-1.074-1.408-2.815-1.891-4.476-1.828Zm-121.004.237-4.98 13.581 3.497.029.883-2.338h4.307l.831 2.338h3.69l-5.014-13.61h-3.214Zm32.65 0v13.581h9.535v-3.133h-6.092v-2.216h4.635v-2.872h-4.635V93.14h5.696v-3.115h-9.138Zm10.542 0v3.115h3.594v10.466h3.47V93.139h3.531v-3.115h-10.595Zm16.193 0v13.581l3.302.01v-6.678l2.649 6.762h1.404l2.561-6.725v6.641h3.328V90.024h-3.532l-2.985 8.091-3.195-8.091h-3.532Zm19.84 0-4.98 13.581 3.506.029.882-2.338h4.3l.829 2.338h3.69l-5.014-13.61h-3.213Zm9.809 0v13.581l3.364.01v-7.679l4.537 7.679h3.135V90.024h-3.381v7.192l-4.177-7.192h-3.478Zm17.596 0-4.989 13.581 3.506.029.883-2.338h4.309l.83 2.338h3.69l-5.014-13.61h-3.215Zm22.189 0v13.581h9.543v-3.133h-6.091v-2.216h4.636v-2.872h-4.636V93.14h5.694v-3.115h-9.146Zm11.69 0v13.581l3.371.01v-6.678l2.649 6.762h1.369l2.561-6.725v6.641h3.328V90.024h-3.531l-3.02 8.091-3.195-8.091h-3.532Zm16.165 0v13.581h9.545v-3.133h-6.101v-2.216h4.635v-2.872h-4.635V93.14h5.694v-3.115h-9.138Zm11.699 0v13.581l3.364.01v-7.679l4.539 7.679h3.133V90.024h-3.381v7.192l-4.175-7.192h-3.48Zm12.751 0v3.115h3.592v10.466h3.471V93.139h3.532v-3.115h-10.595ZM61.971 94.356l1.387 4.134h-2.773l1.386-4.134Zm79.225 0 1.385 4.134h-2.771l1.386-4.134Zm27.406 0 1.386 4.134h-2.773l1.387-4.134Z" fill="#009FE3"/></svg>