<svg width="320" height="36" viewBox="0 0 320 36" fill="none" xmlns="http://www.w3.org/2000/svg"><g clip-path="url(#a)"><path d="m33.625 23.143 5.438-2.957 4 8.614H37s-1.125 0-1.625-1.093c-.25-1.221-1.688-4.564-1.75-4.564ZM.5 31.5h44v4.114H.5V31.5Zm36.187-17.164L32.125 3.92h-6.563L16.25 21.793s4.562-.193 7.437-2.443c.688-.45 2.625-5.786 4.563-9.579.187-.45.25 0 .25 0l2.812 7.329c-4.437 2.314-8.75 4.436-11 5.143-6.062 1.8-13.437 2.893-16.062.45-2.5-2.25 3.25-11.829 14.125-13.886 1.75-.45 2.75-.257 2.75-.257s-.875-3.536-1.313-3.986c-.875-.9-1.562-1.285-2.75-1.093C14.687 3.664 4.687 6.364.75 14.914c-2.188 4.886.875 10.029 2.812 11.379.563.45 6.438 5.786 19.5.514C36.062 21.6 47.625 13.5 47.625 13.5V8.1c.062 0-5 2.957-10.938 6.171v.065Z" fill="#43494D"/><path d="M47.688 5.914s-6.876 4.05-8.5 4.693c-1.438.643-2.063-.193-2.188-.45C36.75 9.9 35.875 7.2 35.875 7.2s.438 0 1.313-.193c1.062-.257 10.624-5.786 10.624-5.786v4.693m25.626-1.093v3.472C70.061 7.07 64.811 5.85 62 9.064c-1.313 1.607-1.563 4.179-.75 6.043.938 2.443 3.5 3.279 5.875 3.343 2.188.064 4.188-.386 6.188-.964v3.343C68.75 22.307 62.25 22.95 58.5 19.157c-1.5-1.478-2.375-3.407-2.563-5.593-.062-1.221.126-2.507.376-3.664.083-.257.166-.536.25-.836l.124-.257c2.188-4.05 6.438-5.528 10.876-5.207 2.187.129 4.062.579 5.874 1.221ZM114 7.071h-12.312V18.45h12.937l-1.312 3.15H97.437V4.114h15.501L114 7.071Z" fill="#277656"/><path d="M111.687 11.25c-.687.964-1.124 2.314-2.437 2.7l-1.062.064H102c.5-.771.938-1.607 1.438-2.443.562-.578 1.312-.578 2.124-.578h6.25l-.125.257ZM87.063 3.921c2.5.129 5.187.643 6.25 3.15.687 1.479.624 3.6-.25 4.95-.688 1.093-3 1.993-3 1.993l4.624 7.522h-4.874L85.874 15.3l-.188-.064h-4.124s.874-2.315 1.874-3.022c2-.321 5.126.45 5.688-2.314 0-.836-.125-1.543-.813-1.993-.937-.707-2.187-.578-3.437-.643H80.5v14.272h-4.438V3.92h11ZM106.25.064l-2.188 3.215h3.25l3.063-3.215h-4.125Z" fill="#277656"/><path fill-rule="evenodd" clip-rule="evenodd" d="M135.125 9.064c1.312 3.022.875 7.072-1.25 9.386-2.188 2.507-5.188 3.086-8.313 3.086h-8.25V3.92h5.125c4.875 0 10.5-.064 12.688 5.143Zm-6.312-.964c-2.125-1.221-4.625-.9-7.188-.9v11.25c3.5 0 7.625.45 9.125-3.279.687-1.8.625-4.178-.562-5.721-.313-.579-.75-1.093-1.375-1.35Z" fill="#277656"/><path d="M139.25 3.921h4.563v17.615h-4.563V3.92Zm24.687 0c-.312.836-.5 1.8-1.062 2.572-.313.45-.938.45-1.438.514H157v14.529h-4.375V7.007H146l1.312-3.086h16.625Zm19.125 0c.688 1.608 8.063 17.615 8.063 17.615h-4.812L180 7.07c-.562 1.029-3.188 7.329-3.188 7.329h6.001c-.625 1.157-1.063 2.957-2.626 3.15h-4.812c-.625 1.286-1.25 2.7-1.875 3.986h-4.438l8.126-17.615h5.874Zm26.5.9-.062 3.472c-3.375-1.029-8-2.122-11.375 0-1.938 1.414-2.625 3.857-2.125 6.171.312 1.286 1.062 2.443 2.125 3.15 2.375 1.672 5.625 1.222 8.312.643v-3.793H201c.312-.9.625-1.864 1.25-2.571.25-.322.687-.386 1.062-.45h7.188V20.7c-5 1.286-11.938 2.443-16.438-.9-2.5-2.186-3.312-5.207-2.937-8.486.312-2.957 2.937-5.721 5.687-6.621 4.063-1.479 8.875-1.093 12.688.128h.062Zm15.751-.9c2.437.129 5.187.643 6.25 3.15.687 1.479.562 3.6-.313 4.95-.687 1.093-2.938 1.993-2.938 1.993l4.626 7.522H228l-3.937-6.236-.126-.064h-4.124s.875-2.315 1.812-3.022c2.063-.321 5.25.45 5.688-2.314 0-.836-.063-1.543-.75-1.993-1-.707-2.188-.578-3.438-.643h-4.375v14.272h-4.438V3.92h11.001Zm10.687 0h4.562v17.615H236V3.92Zm25.062.9v3.472c-3.312-1.222-8.562-2.443-11.375.771-1.312 1.607-1.562 4.179-.812 6.043 1 2.443 3.5 3.279 5.875 3.343 2.187.064 4.312-.386 6.25-.964v3.343c-4.563 1.478-11.063 2.121-14.75-1.672-1.5-1.478-2.375-3.407-2.5-5.593-.125-1.221.062-2.507.312-3.664.125-.257.188-.579.375-.836l.063-.257c2.188-4.05 6.5-5.528 10.875-5.207 2 .129 3.875.579 5.687 1.221Zm58.313 2.25h-12.25V18.45H320l-1.313 3.15h-15.875V4.114h15.563l1 2.957Z" fill="#277656"/><path d="M317.063 11.25c-.688.964-1.125 2.314-2.438 2.7l-1.062.064h-6.188c.5-.771.938-1.607 1.438-2.443.562-.578 1.312-.578 2.125-.578h6.25l-.125.257Zm-26 7.136h9.875s-.938 2.121-1.376 3.15H286.5V3.92h4.563v14.465Z" fill="#277656"/><path fill-rule="evenodd" clip-rule="evenodd" d="M282.75 8.743c1.375 2.828 1 7.007-1 9.514-2.688 3.407-7 3.986-11.125 3.536-3-.514-6.188-2.25-7.375-5.4-1.188-2.829-.875-6.686 1-9 2.812-3.6 7.25-4.243 11.562-3.6 2.813.514 5.688 2.057 6.938 4.95Zm-7.125-1.672c-2.125-.771-4.813-.514-6.5 1.093-1.75 1.8-2.063 4.757-1.313 7.136.563 1.736 2.188 2.957 3.875 3.407 2.188.45 4.563-.064 6.063-1.993 1.5-2.057 1.562-5.4.25-7.585-.5-.9-1.5-1.672-2.375-2.058Z" fill="#277656"/><path d="M62.625 35.871c-3.125 0-5.5-1.8-5.5-4.821 0-2.957 2.5-4.757 5.438-4.757 1.374 0 2.374.257 3.562.643v1.993C65.062 28.479 64 28.22 63 28.22c-1.938 0-3.375 1.158-3.375 2.829 0 1.8 1.313 3.021 3.5 3.021 1.188 0 1.75-.257 3-.45v1.608c-1.25.45-2.188.642-3.5.642Z" fill="#43494D"/><path fill-rule="evenodd" clip-rule="evenodd" d="M67 31.179c0-2.893 2.125-4.758 5.625-4.758 3 0 5.438 1.8 5.438 4.822 0 2.443-1.75 4.693-5.438 4.693-3.688 0-5.625-2.315-5.625-4.757Zm2.563-.129c0 1.736 1.062 3.343 3.062 3.343 1.813 0 2.875-1.607 2.875-3.343 0-1.671-1.125-3.021-2.875-3.021-1.938-.129-3.063 1.35-3.063 3.021Z" fill="#43494D"/><path d="M82.438 32.271c.062-.385.437-.9.624-1.285.126-.257.438-.386.876-.386.312 0 .75 0 1.312-.064.875-.193 1.125-.643 1.125-1.286 0-1.35-1.875-1.221-3.063-1.221h-1.437v7.65H79.5v-9.193h5.625c2.375 0 3.625 1.093 3.625 2.764 0 1.221-.688 1.993-1.938 2.379l2.438 3.985h-2.625L84.5 32.271h-2.063Zm11.187.065c.188-.386.563-.965.75-1.35.125-.257.438-.257.938-.257.374 0 .687 0 1.25-.129.874-.129 1.124-.579 1.124-1.221 0-1.35-1.874-1.286-3-1.286h-1.374v7.586h-2.376v-9.193h5.626c2.312.064 3.562 1.157 3.562 2.893 0 1.157-1.25 2.635-2.625 2.892-1.563.258-3.875.065-3.875.065Z" fill="#43494D"/><path fill-rule="evenodd" clip-rule="evenodd" d="M100.812 31.179c0-2.893 2.125-4.758 5.625-4.758 3 0 5.438 1.8 5.438 4.822 0 2.443-1.75 4.693-5.438 4.693-3.75 0-5.625-2.315-5.625-4.757Zm2.5-.129c0 1.736 1.063 3.343 3.063 3.343 1.812 0 3-1.607 2.875-3.343-.063-1.671-1.125-3.021-2.875-3.021-1.875-.129-3 1.35-3.063 3.021Z" fill="#43494D"/><path d="M116.187 32.271c.063-.385.438-.9.625-1.285.125-.257.438-.386.876-.386.312 0 .749 0 1.312-.064.875-.193 1.125-.643 1.125-1.286 0-1.35-1.875-1.221-3-1.221h-1.375v7.65h-2.375v-9.193H119c2.375 0 3.563 1.093 3.563 2.764 0 1.221-.688 1.993-1.938 2.379l2.5 3.985h-2.687l-2.063-3.343h-2.188Zm16.125 3.408-3.187-7.458-1.75 3.858h3.187c-.625 1.542-1.062 1.607-1.937 1.607h-1.938l-.874 2.057h-2.375l4.312-9.193h3.063l4.124 9.193h-2.625m5.063-7.714h-3.5l.813-1.608h8.75s-.188.579-.625 1.222c-.25.45-.938.45-1.563.45h-1.562v7.586h-2.376v-7.65" fill="#43494D"/><path fill-rule="evenodd" clip-rule="evenodd" d="M144.75 26.357h-.062.062Zm8.187 0 .563 1.672h-6.437v5.914h6.75l-.751 1.607h-8.312v-9.193h8.187Zm-5.249 4.564c.437-.771.5-.642 2.187-.642h2.437l-.75 1.092c-.25.322-.562.45-1 .45h-3.375l.501-.9Z" fill="#43494D"/><path d="M170.375 26.357h2.375v9.257h-2.375v-9.257Zm4.875 0h2.875l4.063 6.364v-6.364h2v9.322h-2.5l-4.5-6.75v6.75h-1.938v-9.322Zm10.25 0h2.625l2.813 6.879 2.875-6.879h2.375l-4.126 9.322h-2.5l-4.062-9.322Z" fill="#43494D"/><path fill-rule="evenodd" clip-rule="evenodd" d="M197.625 26.357h-.125.125Zm8.125 0 .625 1.672h-6.5v5.914h6.75l-.688 1.607h-8.312v-9.193h8.125Zm-5.25 4.564c.437-.771.5-.642 2.187-.642h2.438l-.75 1.092c-.313.322-.563.45-1 .45h-3.438l.563-.9Z" fill="#43494D"/><path d="M210.875 34.136c1.125.064 2.875 0 2.875-.9 0-1.35-2.375-1.157-3.187-1.286-.938-.129-2.875-.707-2.875-2.7 0-2.057 2.312-2.893 4.312-2.893 1.188 0 2.562.386 3.5.836v1.736c-1.125-.386-2.375-.836-3.875-.836-.687 0-1.625.257-1.625.9 0 1.35 3.063 1.093 4.188 1.35.937.257 1.937 1.093 1.937 2.443 0 1.993-1.875 2.893-3.875 3.085-1.687.065-2.625-.321-4.125-.642l-.25-1.8c1.125.321 1.813.642 3 .707Zm8.812-6.107h-3.437l.812-1.608h8.75s-.187.579-.625 1.222c-.25.45-.937.45-1.562.45h-1.563v7.586h-2.375v-7.65Zm7.001-1.672h3.249l2.563 6.364 2.562-6.364h3.125v9.322h-2V28.67l-2.812 7.008h-1.75l-3-6.879v6.879h-1.937v-9.322Z" fill="#43494D"/><path fill-rule="evenodd" clip-rule="evenodd" d="M240.812 26.357h-.062.062Zm8.188 0 .562 1.672h-6.437v5.914h6.75l-.75 1.607h-8.313v-9.193H249Zm-5.25 4.564c.437-.771.5-.642 2.187-.642h2.438l-.75 1.092c-.25.322-.563.45-1 .45h-3.375l.5-.9Z" fill="#43494D"/><path d="M251.25 26.357h2.875l4.125 6.364v-6.364h2.062v9.322h-2.625l-4.499-6.75v6.75h-1.938v-9.322Zm13.25 1.672h-3.438l.813-1.608h8.75s-.188.579-.625 1.222c-.25.45-.938.45-1.563.45h-1.562v7.586H264.5v-7.65Z" fill="#43494D"/><path fill-rule="evenodd" clip-rule="evenodd" d="M276.125 26.357h5.75c3.188 0 3.938 3.279 2 4.179.938.257 1.688 1.093 1.688 2.314 0 1.543-1.375 2.7-3.375 2.7h-6.063v-9.193Zm5.188 7.714c.875 0 1.937-.385 1.937-1.285 0-.9-1.062-1.286-1.937-1.286h-2.188c.375-.964.813-1.414 1.438-1.414h.687c.688 0 1.5-.45 1.5-1.093 0-.772-1-1.157-1.875-1.157h-2.563v6.235h3.001Z" fill="#43494D"/><path d="m294.937 35.679-3.187-7.458L290 32.08h3.187c-.625 1.542-1.062 1.607-1.937 1.607h-1.938l-.875 2.057h-2.375l4.313-9.193h2.937l4.125 9.193h-2.5m3.501-9.387h2.875l4.062 6.364v-6.364h2v9.322h-2.562l-4.438-6.75v6.75h-1.937v-9.322Zm15.25 5.272-1.438.964v3.086h-2.375v-9.322h2.375v3.986l4.5-3.986h2.688l-4 3.793 4 5.529h-2.688l-3.062-4.05Z" fill="#43494D"/><path fill-rule="evenodd" clip-rule="evenodd" d="M162.625 32.336c.25-.386.375-.836.375-1.286h1.813c-.063 1.093-.313 2.121-1 2.829L165 35.614h-2.25l-.437-.578c-.75.45-1.313.835-2.313.835-2.125 0-2.812-1.478-2.812-2.635 0-1.35.687-1.993 1.75-2.765-.313-.578-.876-1.35-.876-2.121 0-1.414 1.126-2.25 2.563-2.25 1.313 0 2.437.707 2.437 2.186 0 1.157-.75 1.8-1.562 2.507l1.125 1.543ZM160 31.82c-.5.322-.813.772-.813 1.222 0 .643.563 1.221 1.188 1.221.313 0 .688-.193.938-.45L160 31.821Zm.5-2.442c.437-.386.813-.772.813-1.286 0-.45-.376-.707-.813-.707a.701.701 0 0 0-.688.707c0 .45.375.9.688 1.286Z" fill="#43494D"/></g><defs><clipPath id="a"><path fill="#fff" d="M0 0h320v36H0z"/></clipPath></defs></svg>