<svg width="319" height="88" viewBox="0 0 319 88" fill="none" xmlns="http://www.w3.org/2000/svg">
<g clip-path="url(#clip0_152_60)">
<path d="M276.158 40.8926L268.423 20.9842L258.334 42.9632C254.925 49.8794 243.773 51.8895 235.969 52.9977L237.383 50.0554L259.962 6.75439H277.565L290.177 33.0133L295.703 45.4701L307.092 70.4605L299.242 70.4457L293.119 70.4077C290.544 70.4457 288.029 70.2549 286.959 67.496L284.788 62.1618L281.15 53.1286L276.158 40.8934" fill="#006F4E"/>
<path d="M281.039 53.2238C269.017 59.4062 256.794 65.5202 242.802 68.7299C229.768 71.7181 215.424 72.1078 205.416 66.3149C196.405 61.1182 193.463 50.9312 193.631 43.4494C193.746 38.5506 196.137 31.6954 200.834 25.9866C209.577 15.3485 226.067 6.1394 239.201 5.71934C243.883 5.56656 246.856 7.11798 248.634 18.6497C243.745 18.635 239.507 19.2611 234.373 21.0952C231.117 22.2722 224.917 24.9699 217.837 29.9448C208.58 36.448 203.301 42.9519 202.749 49.1194C202.266 54.5377 207.316 57.7474 215.691 58.4432C235.522 60.1321 258.441 50.694 276.035 40.9804L290.08 33.1011L318.8 17.5415L318.707 32.1308L295.628 45.5586L281.038 53.224" fill="#009B9D"/>
<path d="M310.515 77.6221H195.432V87.7712H310.515V77.6221Z" fill="#006F4E"/>
<path d="M314.374 2.51999L298.005 11.347C298.005 11.347 292.375 14.465 288.772 15.2447L291.315 21.1979C292.072 23.6893 294.849 24.5223 297.014 23.4066L318.999 11.286V-0.00146484L314.374 2.51999Z" fill="#ED1C24"/>
<path d="M11.1586 38.2382C13.891 38.2382 16.7247 39.0809 19.052 40.7663L17.2815 43.0939C15.3837 41.7644 13.7896 41.024 11.3873 41.024C7.21074 41.024 3.94756 43.6543 3.94756 47.4872C3.94756 51.3185 7.21074 53.9505 11.3873 53.9505C13.9152 53.9505 15.5862 53.159 17.6097 51.7783L19.382 54.104C17.004 55.816 14.0183 56.7363 11.1582 56.7363C5.41382 56.7363 -0.000442505 53.3124 -0.000442505 47.4602C-0.000442505 41.6083 5.41363 38.2375 11.1582 38.2375" fill="#00644B"/>
<path d="M33.4376 47.4124C36.1193 47.4124 37.8409 46.2875 37.8409 44.3465C37.8409 42.4563 36.1962 41.4092 33.4131 41.4092H27.9219V47.4125L33.4376 47.4124ZM24.1266 38.5474H33.7151C38.1691 38.5474 41.7865 40.3598 41.7865 44.295C41.7865 47.361 39.5605 48.9706 36.5504 49.6601L42.3435 56.4306H37.9158L32.6534 50.1962H27.9217V56.4306H24.126L24.1266 38.5474Z" fill="#00644B"/>
<path d="M58.881 33.4319L55.946 36.5758H52.7072L54.9334 33.4319H58.881ZM46.6608 51.2677V38.5435H62.7007V41.405H50.455V45.7228H61.6901V48.5068H50.455V51.2678C50.455 52.8245 51.1901 53.5649 52.6828 53.5649H63.0555V56.4264H51.7711C48.5323 56.4264 46.6608 54.5118 46.6608 51.2677Z" fill="#00644B"/>
<path d="M76.5153 53.5651C80.8157 53.5651 83.7018 51.1372 83.7018 47.5088C83.7018 43.8557 80.8157 41.4052 76.5153 41.4052H72.0613V53.565L76.5153 53.5651ZM68.2654 38.5415H76.2621C83.0938 38.5415 87.6478 42.1188 87.6478 47.4839C87.6478 52.8509 83.0943 56.4263 76.2621 56.4263H68.2654V38.5415Z" fill="#00644B"/>
<path d="M92.6376 56.4321H96.4334V38.5474H92.6376V56.4321Z" fill="#00644B"/>
<path d="M100.587 41.4079V38.5464H117.994V41.4079H111.189V56.4315H107.395V41.4079H100.587Z" fill="#00644B"/>
<path d="M14.6038 80.5857L11.1117 73.482L7.61983 80.5857H14.6038ZM15.9952 83.3695H6.2281L4.10343 87.6892H0.232559L9.41593 69.8044H13.2868L22.4721 87.6892H18.1194L15.9952 83.3695Z" fill="#00644B"/>
<path d="M35.7216 69.4978C38.454 69.4978 41.2877 70.3406 43.6169 72.0259L41.8446 74.3535C39.9468 73.0241 38.3527 72.2836 35.9484 72.2836C31.7738 72.2836 28.5106 74.8628 28.5106 78.696C28.5106 82.4779 31.4212 85.2108 35.8227 85.2108C37.7712 85.2108 39.5679 84.6749 40.8317 83.8302V80.4061H35.4946V77.6734H44.6275V85.1862C42.5008 86.7185 39.4909 87.9965 35.6706 87.9965C28.9927 87.9965 24.5631 84.0102 24.5631 78.7211C24.5631 72.8692 29.9772 69.4984 35.7217 69.4984" fill="#00644B"/>
<path d="M59.3978 78.6722C62.0795 78.6722 63.8012 77.5474 63.8012 75.6062C63.8012 73.7161 62.1545 72.6689 59.3734 72.6689H53.8822V78.6722H59.3978ZM50.0868 69.8071H59.6753C64.1293 69.8071 67.7467 71.6196 67.7467 75.5548C67.7467 78.6208 65.5205 80.2304 62.5106 80.92L68.3035 87.6899H63.8757L58.6134 81.4555H53.8819V87.6899H50.0863L50.0868 69.8071Z" fill="#00644B"/>
<path d="M73.2552 87.6919H77.0509V69.8071H73.2552V87.6919Z" fill="#00644B"/>
<path d="M93.1608 69.4977C95.8951 69.4977 98.7287 70.3405 101.054 72.0258L99.2838 74.3534C97.3858 73.024 95.7918 72.2835 93.3875 72.2835C89.2149 72.2835 85.9497 74.9138 85.9497 78.7467C85.9497 82.578 89.2147 85.21 93.3875 85.21C95.9194 85.21 97.5884 84.4183 99.612 83.0377L101.384 85.3634C99.0061 87.0754 96.0188 87.9957 93.1605 87.9957C87.4162 87.9957 82.0018 84.5719 82.0018 78.7202C82.0018 72.8683 87.4165 69.4977 93.1608 69.4977Z" fill="#00644B"/>
<path d="M108.556 78.7495C108.556 82.3516 111.517 85.2128 115.817 85.2128C120.118 85.2128 123.079 82.3513 123.079 78.7495C123.079 75.1476 120.118 72.2863 115.817 72.2863C111.517 72.2863 108.556 75.1478 108.556 78.7495ZM104.61 78.7495C104.61 73.6912 109.265 69.5005 115.817 69.5005C122.37 69.5005 127.026 73.6913 127.026 78.7495C127.026 83.8079 122.369 87.9986 115.817 87.9986C109.264 87.9986 104.61 83.8078 104.61 78.7495Z" fill="#00644B"/>
<path d="M130.924 69.8071H134.72V84.8307H145.98V87.6922H130.924L130.924 69.8071Z" fill="#00644B"/>
<path d="M149.33 82.5313V69.8071H165.37V72.6686H153.126V76.9863H164.36V79.7703H153.126V82.5315C153.126 84.0899 153.859 84.8305 155.352 84.8305H165.725V87.692H154.44C151.201 87.692 149.33 85.7772 149.33 82.5313Z" fill="#00644B"/>
<path d="M11.5733 6.76587C14.3057 6.76587 17.1394 7.6087 19.4686 9.29396L17.6963 11.6216C15.7985 10.2921 14.2044 9.55167 11.8001 9.55167C7.6255 9.55167 4.36233 12.1308 4.36233 15.964C4.36233 19.7459 7.27294 22.4788 11.6744 22.4788C13.6229 22.4788 15.4196 21.943 16.6834 21.0984V17.6743H11.3463V14.9416H20.4792V22.4544C18.3525 23.9865 15.3426 25.2647 11.5223 25.2647C4.8444 25.2647 0.414764 21.2783 0.414764 15.9886C0.414764 10.1368 5.82883 6.76587 11.5733 6.76587Z" fill="#00644B"/>
<path d="M34.9178 15.9337C37.5995 15.9337 39.3211 14.8087 39.3211 12.8677C39.3211 10.9775 37.6764 9.93036 34.8933 9.93036H29.4021V15.9337H34.9178ZM25.6068 7.0686H35.1953C39.6493 7.0686 43.2666 8.88098 43.2666 12.8163C43.2666 15.8823 41.0406 17.4919 38.0306 18.1813L43.8237 24.9519H39.3959L34.1335 18.7175H29.4018V24.9519H25.6061L25.6068 7.0686Z" fill="#00644B"/>
<path d="M51.678 16.011C51.678 19.613 54.6391 22.4743 58.9397 22.4743C63.2399 22.4743 66.2014 19.6128 66.2014 16.011C66.2014 12.4091 63.2402 9.54776 58.9397 9.54776C54.6393 9.54776 51.678 12.4093 51.678 16.011ZM47.732 16.011C47.732 10.9526 52.3868 6.76196 58.9391 6.76196C65.492 6.76196 70.1482 10.9528 70.1482 16.011C70.1482 21.0693 65.4917 25.2601 58.9391 25.2601C52.3863 25.2601 47.732 21.0693 47.732 16.011Z" fill="#00644B"/>
<path d="M119.555 19.7091V6.98486H135.595V9.84636H123.35V14.1642H134.584V16.9481H123.35V19.7092C123.35 21.2678 124.084 22.0082 125.576 22.0082H135.949V24.8697H124.665C121.426 24.8697 119.555 22.9551 119.555 19.7091Z" fill="#00644B"/>
<path d="M107.146 15.9337C109.827 15.9337 111.549 14.8087 111.549 12.8677C111.549 10.9775 109.904 9.93036 107.121 9.93036H102.571V15.9337H107.146ZM98.7758 7.0686H107.423C111.877 7.0686 115.489 8.88098 115.495 12.8163C115.502 17.9159 109.131 18.7198 107.326 18.7153H102.571V24.9497H98.7756L98.7758 7.0686Z" fill="#00644B"/>
<path d="M74.914 7.06852L74.8971 15.9941C74.8874 21.0525 77.3426 25.2709 83.8954 25.2709C90.3303 25.2709 92.8663 21.197 92.8797 16.2602L92.9045 7.06787H89.3182V16.1327C89.3182 19.6675 88.1387 22.4577 83.8954 22.4577C79.7087 22.4577 78.5001 19.7391 78.5001 16.2714V7.06813L74.914 7.06852Z" fill="#00644B"/>
</g>
<defs>
<clipPath id="clip0_152_60">
<rect width="319" height="88" fill="white"/>
</clipPath>
</defs>
</svg>
