<svg width="326" height="53" viewBox="0 0 326 53" fill="none" xmlns="http://www.w3.org/2000/svg"><g clip-path="url(#a)" fill="#827060"><path d="m51.9 33.545 8.442-4.618 6.273 13.315h-9.334s-1.796.013-2.51-1.642c-.674-1.827-2.858-7.055-2.872-7.055ZM.717 52.705h67.886v-6.206H.717v6.206ZM56.528 20.09 49.521 4.21h-10.2L24.995 31.53c.013.01 7.048-.225 11.56-3.694 1.142-.691 4.095-8.8 7.04-14.601.24-.705.464-.013.464 0l4.381 11.207c-6.933 3.627-13.511 6.808-17.05 7.828-9.347 2.75-20.73 4.406-24.819.697-3.844-3.482 5.035-18.097 21.833-21.347 2.7-.691 4.314-.465 4.314-.438 0-.026-1.34-5.37-2.048-6.048-1.354-1.43-2.477-1.889-4.314-1.656-3.633.226-19.097 4.441-25.207 17.605-3.402 7.485 1.347 15.36 4.307 17.413.897.74 10 8.834 30.207.746 20.01-7.937 37.937-20.43 37.957-20.43V10.45c-.013-.013-7.912 4.618-17.09 9.64Z"/><path d="M73.61 7.193c-.012 0-10.68 6.254-13.177 7.211-2.3.917-3.198-.273-3.416-.738-.456-.446-1.803-4.598-1.796-4.605-.006.009.667.009 2.021-.226 1.606-.48 16.355-8.84 16.37-8.84M85.151 40.85h3.17l2.94 8.525 2.918-8.525h2.572l2.953 8.525 2.796-8.525h2.878l-4.293 11.844h-3.211l-2.647-7.705-2.504 7.705h-3.402m17.477-11.844h10.606l.735 2.128h-8.368v7.683h8.667l-.898 2.032h-10.743l.001-11.843Zm3.864 5.7c.619-.972.721-.822 2.81-.835l3.17-.014-.972 1.41c-.341.472-.715.527-1.246.527h-4.456m20.367 5.06-4.11-9.579-2.259 4.906h4.028c-.762 1.943-1.381 2.052-2.49 2.052h-2.463l-1.15 2.621h-3.075l5.552-11.844h3.905l5.327 11.844m1.494 0V40.855h3.035v9.825h6.531l-.939 2.018m3.957-9.743h-4.47l1.034-2.1h11.342s-.252.855-.748 1.552c-.388.548-1.259.548-2.048.548h-2.048v9.743h-3.062m9.193-11.848h3.076v4.372h5.864V40.85h2.994v11.844h-3.021v-5.111h-5.837v5.11h-3.089m21.399-11.843h4.184l3.279 8.073 3.334-8.073h4.028v11.844h-2.626v-9.005l-3.572 9.005h-2.355l-3.809-8.73v8.73h-2.463m27.775.004-4.109-9.579-2.259 4.906h4.035c-.763 1.943-1.382 2.052-2.497 2.052h-2.456l-1.157 2.621h-3.068l5.544-11.844h3.913l5.32 11.844m1.494-11.848h3.666l5.294 8.115V40.85h2.612v11.844h-3.361l-5.749-8.58v8.58h-2.462m24.776.004-4.11-9.579-2.258 4.906h4.027c-.761 1.943-1.374 2.052-2.489 2.052h-2.457l-1.156 2.621h-3.076l5.552-11.844h3.905l5.328 11.844m10.752-2.196v-2.566h-3.627l.497-1.218c.292-.739.68-.82 1.98-.82 1.218 0 3.755-.014 3.755-.014v6.247c-1.537.56-4.075.869-5.776.869-4.014 0-7.171-2.333-7.171-6.09 0-3.797 3.28-6.137 7.049-6.137 1.796 0 3.694.26 5.272.684v2.436c-1.374-.63-3.531-.917-4.939-.917-2.538 0-4.103 1.636-4.103 3.934 0 2.32 1.497 3.92 4.375 3.92.973 0 2.075-.082 2.688-.328Zm5.346-9.652h10.607l.734 2.128h-8.368v7.683h8.667l-.897 2.032h-10.743V40.85Zm3.864 5.7c.619-.972.722-.822 2.811-.835l3.17-.014-.973 1.41c-.334.472-.714.527-1.245.527h-4.456m10.717-6.788h4.183l3.28 8.073 3.333-8.073h4.029v11.844h-2.627v-9.005l-3.572 9.005h-2.354l-3.81-8.73v8.73h-2.462m17.604-11.844h10.606l.736 2.128h-8.369v7.683h8.668l-.899 2.032h-10.743l.001-11.843Zm3.865 5.7c.619-.972.72-.822 2.809-.835l3.171-.014-.973 1.41c-.333.472-.715.527-1.246.527h-4.456m10.456-6.788h3.667l5.294 8.115V40.85h2.612v11.844h-3.361l-5.749-8.58v8.58h-2.463m17.604-9.739h-4.469l1.034-2.1h11.342s-.252.855-.749 1.552c-.387.548-1.259.548-2.048.548h-2.047v9.743h-3.062M85.803 31.71h7.144V4.203h-7.144V31.71Zm14.996-27.507h8.62l12.465 18.843V4.203h6.13v27.505h-7.899l-13.532-19.924v19.924H100.8m67.938-13.683c0-8.758 6.361-14.608 16.961-14.608 9.123 0 16.424 5.529 16.424 14.773 0 7.492-5.416 14.306-16.424 14.306-11.206 0-16.961-7.102-16.961-14.47m7.681-.226c-.058 5.234 3.075 9.99 9.28 9.99 5.633 0 8.934-4.852 8.804-10.154-.123-5.105-3.483-9.402-8.804-9.402-5.763 0-9.218 4.332-9.28 9.566Zm58.888 2.933V4.21h6.891v15.825c0 3.866 1.824 7.26 6.736 7.26 5.184 0 6.857-3.394 6.857-7.26V4.21h6.77v16.523c0 8.628-6.293 11.769-13.723 11.769-7.681 0-13.531-3.141-13.531-11.769Zm-99.43-16.53h10.947c10.695 0 18.444 4.536 18.444 14.655 0 8.882-6.375 12.85-16.253 12.85h-13.138V4.203Zm11.804 22.428c7.626 0 10.565-2.654 10.565-8.846 0-5.618-3.755-8.506-11.178-8.506h-4.177v17.352m157.551.029 15.043-17.474h-16.233L301 4.205h23.861v4.563L309.756 26.66h16.234l-2.246 5.05h-23.302m-85.347-4.61c3.382.26 8.681.274 8.681-3.065 0-2.744-4-3.12-6.796-3.325-5.232-.39-11.547-2.121-11.547-8.642 0-6.192 7.022-8.642 13.091-8.642 3.714 0 7.742 1.06 10.702 2.416v5.323c-3.593-1.129-7.341-2.354-11.832-2.354-2.17 0-5.103.705-5.103 2.805 0 2.88 4.491 3.25 9.621 3.798 5.068.547 8.98 2.134 8.98 7.717 0 5.898-5.694 8.806-11.675 9.292-4.939.383-9.028-.636-12.552-2.004l-.885-5.317c3.742 1.095 5.885 1.738 9.314 1.998m53.921-22.897h24.955l1.729 4.947h-19.703v17.83h20.397l-2.109 4.728h-25.269V4.203Zm12.682 11.262c-1.259 0-2.136.13-2.925 1.238l-2.3 3.264h10.485c1.251 0 2.129-.123 2.925-1.232l2.292-3.27"/></g><defs><clipPath id="a"><path fill="#fff" d="M0 0h326v53H0z"/></clipPath></defs></svg>