<svg width="178" height="63" viewBox="0 0 178 63" fill="none" xmlns="http://www.w3.org/2000/svg"><path d="M49.195 47.795c-2.22 0-4.402 1.04-4.402 3.929 0 4.279 5.495 3.268 5.495 5.73 0 1.168-1.259 1.685-2.215 1.685-.992 0-1.983-.315-2.849-.798l-.258 2.334c1.244.315 1.879.502 3.25.502 2.544 0 4.72-1.096 4.72-3.929 0-4.335-5.525-3.372-5.525-5.613 0-1.408 1.119-1.802 1.986-1.802.883 0 1.767.21 2.56.562l.23-2.128c-.92-.315-1.91-.472-2.992-.472Zm21.953 0c-4.006 0-6.157 2.68-6.157 6.647 0 3.963 2.114 6.735 6.157 6.735 3.987 0 6.187-2.828 6.187-6.735 0-3.91-2.234-6.647-6.186-6.647Zm29.981 0c-2.219 0-4.402 1.04-4.402 3.929 0 4.279 5.524 3.268 5.524 5.73 0 1.168-1.29 1.685-2.244 1.685-.992 0-1.984-.315-2.848-.798l-.23 2.334c1.245.315 1.852.502 3.222.502 2.544 0 4.719-1.096 4.719-3.929 0-4.335-5.496-3.372-5.496-5.613 0-1.408 1.092-1.802 1.957-1.802.885 0 1.795.21 2.589.562l.23-2.128c-.918-.315-1.938-.472-3.021-.472Zm51.445 0c-4.276 0-6.905 2.485-6.905 6.912 0 4.374 2.828 6.47 6.905 6.47.958 0 1.957-.191 2.878-.414l-.115-2.156c-.597.314-1.77.532-2.763.532-2.688 0-4.287-1.977-4.287-4.609 0-2.648 1.63-4.697 4.23-4.697.901 0 1.775.124 2.733.68l.173-2.186c-.92-.37-2.018-.532-2.849-.532Zm19.105 0c-2.217 0-4.402 1.04-4.402 3.929 0 4.279 5.525 3.268 5.525 5.73 0 1.168-1.288 1.685-2.245 1.685-.992 0-1.982-.315-2.848-.798l-.23 2.334c1.244.315 1.851.502 3.222.502 2.541 0 4.719-1.096 4.719-3.929 0-4.335-5.525-3.372-5.525-5.613 0-1.408 1.119-1.802 1.986-1.802.883 0 1.766.21 2.561.562l.23-2.128c-.92-.315-1.911-.472-2.993-.472Zm-168.03.207V60.94h2.503V48H3.648Zm5.409 0V60.94h2.416v-9.66h.03l4.833 9.66h3.079V48h-2.417v9.69h-.029L12.165 48H9.058Zm12.17 0 4.345 12.939h3.079L32.91 48h-2.503l-3.194 10.163h-.058l-3.222-10.162h-2.705Zm13.638 0V60.94h7.453v-2.039h-4.95V55.27h4.518v-2.04H37.37v-3.19h4.92v-2.038h-7.424Zm19.364 0v2.038h3.597v10.9h2.532v-10.9h3.596v-2.038H54.23Zm25.493 0V60.94h2.532v-5.377h.805c1.068 0 1.396.395 1.755 1.359l1.525 4.018h2.82l-2.014-5.052c-.253-.573-.669-1.274-1.352-1.33v-.029c1.604-.222 2.59-1.495 2.59-3.013 0-3.596-3.221-3.515-5.928-3.515h-2.733Zm27.477 0V60.94h7.481v-2.039h-4.949V55.27h4.489v-2.04h-4.489v-3.19h4.92v-2.038H107.2Zm10.128 0V60.94h2.532v-5.377h.806c1.067 0 1.395.395 1.755 1.359l1.525 4.018h2.82l-2.043-5.052c-.251-.573-.638-1.274-1.324-1.33v-.029c1.606-.222 2.59-1.495 2.59-3.013 0-3.596-3.222-3.515-5.927-3.515h-2.734Zm10.013 0 4.316 12.939h3.107l4.23-12.94h-2.503l-3.194 10.163h-.029l-3.222-10.162h-2.705Zm13.408 0V60.94h2.503V48h-2.503Zm16.861 0V60.94h7.48v-2.039h-4.948V55.27h4.488v-2.04h-4.488v-3.19h4.891v-2.038h-7.423Zm-86.462 1.831c2.508 0 3.54 2.33 3.54 4.609 0 2.333-.96 4.697-3.54 4.697s-3.51-2.364-3.51-4.697c0-2.28 1.003-4.609 3.51-4.609Zm11.107.207h.834c1.264 0 2.676.157 2.676 1.713 0 1.612-1.432 1.773-2.676 1.773h-.834V50.04Zm37.605 0h.835c1.261 0 2.675.157 2.675 1.713 0 1.612-1.431 1.773-2.675 1.773h-.835V50.04Z" fill="#C10037"/><path d="M45.95 10.728c-3.621 0-10.517.4-10.517.4v4.103s6.23-.64 10.412-.64c7.743 0 10.43.25 10.51 5.308.014.802.03 1.755.045 2.819-2.602-.056-8.456-.142-13.26.03-6.407.229-9.76 2.236-9.76 8.203 0 6.123 4.016 8.225 10.318 8.403 3.202.093 5.82.082 9.051 0 8.613-.214 11.134-2.33 11.327-8.867.11-3.724.065-5.41 0-9.999-.134-9.547-5.845-9.76-18.126-9.76Zm10.405 20.378c-.09 2.97-1.501 4.142-4.83 4.325-1.414.078-3.373.032-5.116 0-3.735-.068-5.46-1.295-5.46-4.528 0-3.931 2.324-4.488 6.03-4.601 3.525-.103 7.444-.06 9.446-.027-.001 1.532-.02 3.165-.07 4.831Zm-34.912 4.12C11.41 35.12 9.636 32.489 9.636 24.736c0-9.816 5.202-10.187 11.949-10.187 3.204 0 7.96.417 7.96.417V10.97c-3.678-.211-8.587-.393-13.448-.253C5.433 11.03 1.735 16.41 1.735 24.975c0 14.124 9.133 13.967 18.303 14.116 3.494.059 5.895-.035 9.886-.269v-4.05c-1.807.175-5.562.484-8.48.455Zm66.725 0c-10.034-.106-11.81-2.738-11.81-10.491 0-9.816 5.203-10.187 11.95-10.187 3.204 0 7.961.417 7.961.417V10.97c-3.678-.211-8.588-.393-13.45-.253-10.662.312-14.361 5.693-14.361 14.258 0 14.124 9.133 13.967 18.301 14.116 3.498.059 5.9-.035 9.889-.269v-4.05c-1.807.175-5.56.484-8.48.455Zm53.854-24.346h-7.37c.18 15.46-.172 28.155-.172 28.155h7.697s-.344-11.74-.155-28.155Zm-7.426-3.625h7.477c.028-1.769.063-3.58.104-5.432h-7.697c.048 1.827.085 3.643.116 5.432Zm33.923 15.887h-8.423c-3.293 0-5.479-.354-5.479-4.36 0-4.81 5.47-4.29 9.961-4.29 2.601 0 8.176.442 10.179.736v-4.143c-4.355-.377-12.204-.723-18.023-.26-6.296.498-9.747 2.292-9.747 8.094 0 5.986 3.326 8.148 9.185 8.148h7.925c3.957 0 4.719 1.372 4.719 4.155 0 3.764-2.164 4.045-11.196 4.045-3.528 0-6.187-.28-9.978-.852v4.178c3.536.34 10.49.643 17.158.495 7.133-.154 11.466-2.384 11.466-8.269 0-5.21-1.937-7.677-7.747-7.677Zm-48.111 4.194c6.408-.23 9.76-2.238 9.76-8.205 0-6.12-4.016-8.222-10.317-8.403-3.205-.094-5.822-.082-9.053 0-8.612.214-11.133 2.334-11.327 8.868-.11 3.726-.064 5.407 0 9.998.136 9.546 6.1 9.76 18.382 9.76 4.928 0 10.77-.397 10.77-.397v-4.225s-5.494.694-10.664.68c-7.512-.019-10.685-.247-10.767-5.305-.011-.788-.03-1.715-.042-2.74 2.603.053 8.453.138 13.258-.031Zm-13.284-3.532c0-1.524.018-3.155.068-4.827.09-2.97 1.502-4.142 4.833-4.324 1.412-.078 3.371-.032 5.114 0 3.735.065 5.458 1.292 5.458 4.526 0 3.931-2.32 4.49-6.027 4.598-3.525.106-7.445.063-9.446.027Z" fill="#71787D"/></svg>